<svg width="18" height="18" viewBox="0 0 18 18" fill="none" xmlns="http://www.w3.org/2000/svg">
  <g clip-path="url(#clip0_1_2)">
    <path d="M17.64 9.20455C17.64 8.56637 17.5827 7.95273 17.4763 7.36364H9V10.8455H13.8436C13.635 11.97 13.0077 12.9232 12.0545 13.56V15.8191H14.96C16.6581 14.2527 17.64 11.9455 17.64 9.20455Z" fill="#4285F4"/>
    <path d="M9 18C11.43 18 13.4673 17.1941 14.96 15.8191L12.0545 13.56C11.2445 14.1 10.2073 14.4091 9 14.4091C6.65591 14.4091 4.67182 12.825 3.96409 10.71H0.957275V13.0418C2.44227 15.9832 5.48182 18 9 18Z" fill="#34A853"/>
    <path d="M3.96409 10.71C3.78409 10.17 3.68182 9.59318 3.68182 9C3.68182 8.40682 3.78409 7.83 3.96409 7.29V4.95818H0.957273C0.347727 6.17318 0 7.54773 0 9C0 10.4523 0.347727 11.8268 0.957273 13.0418L3.96409 10.71Z" fill="#FBBC05"/>
    <path d="M9 3.59091C10.3168 3.59091 11.4859 4.04182 12.4091 4.92091L15.0264 2.30364C13.4632 0.845455 11.4268 0 9 0C5.48182 0 2.44227 2.01682 0.957275 4.95818L3.96409 7.29C4.67182 5.175 6.65591 3.59091 9 3.59091Z" fill="#EA4335"/>
  </g>
  <defs>
    <clipPath id="clip0_1_2">
      <rect width="18" height="18" fill="white"/>
    </clipPath>
  </defs>
</svg>
